<svg data-v-423bf9ae="" xmlns="http://www.w3.org/2000/svg" viewBox="0 0 464.67155218398375 60" class="font"><!----><!----><!----><g data-v-423bf9ae="" id="652d269e-b95e-407e-9cf1-843aeb6d1dfc" fill="black" transform="matrix(6.256517105873957,0,0,6.256517105873957,-6.381650429469289,-27.34097999034195)"><path d="M4.31 13.94C6.23 13.94 7.45 12.84 7.45 11.40C7.45 10.00 6.48 9.45 5.39 8.95L4.03 8.36C3.29 8.02 2.34 7.64 2.34 6.65C2.34 5.70 3.15 5.11 4.37 5.11C5.33 5.11 6.08 5.47 6.66 6.02L7.13 5.47C6.51 4.84 5.53 4.37 4.37 4.37C2.70 4.37 1.48 5.33 1.48 6.71C1.48 8.05 2.60 8.68 3.49 9.04L4.86 9.63C5.82 10.07 6.61 10.37 6.61 11.47C6.61 12.50 5.74 13.20 4.31 13.20C3.22 13.20 2.23 12.71 1.54 11.97L1.02 12.56C1.79 13.38 2.93 13.94 4.31 13.94ZM13.02 13.96C14.18 13.96 14.97 13.54 15.60 13.12L15.29 12.53C14.64 12.98 13.97 13.26 13.10 13.26C11.45 13.26 10.30 12.07 10.29 10.36L15.85 10.36C15.88 10.18 15.88 9.98 15.88 9.79C15.88 7.74 14.71 6.47 12.84 6.47C11.10 6.47 9.44 7.91 9.44 10.22C9.44 12.56 11.06 13.96 13.02 13.96ZM10.28 9.73C10.46 8.12 11.61 7.13 12.84 7.13C14.22 7.13 15.11 8.04 15.11 9.73ZM21.66 13.96C22.69 13.96 23.59 13.51 24.30 12.81L23.93 12.28C23.31 12.84 22.58 13.27 21.70 13.27C19.98 13.27 18.83 12.04 18.83 10.22C18.83 8.40 20.01 7.15 21.71 7.15C22.50 7.15 23.13 7.52 23.70 8.09L24.14 7.55C23.58 6.97 22.81 6.47 21.70 6.47C19.67 6.47 17.99 7.83 17.99 10.22C17.99 12.59 19.56 13.96 21.66 13.96ZM28.77 13.96C29.83 13.96 30.66 13.31 31.37 12.43L31.43 12.43L31.50 13.78L32.17 13.78L32.17 6.64L31.36 6.64L31.36 11.70C30.49 12.75 29.85 13.26 28.97 13.26C27.69 13.26 27.19 12.52 27.19 10.98L27.19 6.64L26.36 6.64L26.36 11.09C26.36 13.01 27.13 13.96 28.77 13.96ZM35.80 13.78L36.61 13.78L36.61 9.39C37.51 7.81 38.50 7.22 39.58 7.22C40.12 7.22 40.36 7.28 40.85 7.49L41.06 6.76C40.64 6.52 40.18 6.47 39.72 6.47C38.40 6.47 37.32 7.25 36.60 8.40L36.55 8.40L36.48 6.64L35.80 6.64ZM46.62 13.96C47.78 13.96 48.57 13.54 49.20 13.12L48.89 12.53C48.24 12.98 47.57 13.26 46.70 13.26C45.05 13.26 43.90 12.07 43.89 10.36L49.45 10.36C49.48 10.18 49.48 9.98 49.48 9.79C49.48 7.74 48.31 6.47 46.44 6.47C44.70 6.47 43.04 7.91 43.04 10.22C43.04 12.56 44.66 13.96 46.62 13.96ZM43.88 9.73C44.06 8.12 45.21 7.13 46.44 7.13C47.82 7.13 48.71 8.04 48.71 9.73ZM59.92 13.78L60.75 13.78L60.75 7.76C60.75 7.08 60.68 6.06 60.63 5.42L60.68 5.42L61.33 7.18L63.04 11.26L63.59 11.26L65.28 7.18L65.88 5.42L65.94 5.42C65.91 6.06 65.86 7.08 65.86 7.76L65.86 13.78L66.70 13.78L66.70 4.54L65.58 4.54L63.91 8.71L63.35 10.29L63.29 10.29L62.69 8.71L61.03 4.54L59.92 4.54ZM72.44 13.96C73.60 13.96 74.38 13.54 75.01 13.12L74.70 12.53C74.06 12.98 73.39 13.26 72.52 13.26C70.87 13.26 69.72 12.07 69.71 10.36L75.26 10.36C75.29 10.18 75.29 9.98 75.29 9.79C75.29 7.74 74.13 6.47 72.25 6.47C70.52 6.47 68.85 7.91 68.85 10.22C68.85 12.56 70.48 13.96 72.44 13.96ZM69.69 9.73C69.87 8.12 71.02 7.13 72.25 7.13C73.64 7.13 74.52 8.04 74.52 9.73Z"></path></g><!----><!----></svg>